<mxfile host="app.diagrams.net" modified="2021-05-18T03:24:23.551Z" agent="5.0 (Macintosh; Intel Mac OS X 10_16_0) AppleWebKit/537.36 (KHTML, like Gecko) Chrome/81.0.4044.138 Safari/537.36" etag="o8IiEdB3i_YJ9Aumldya" version="14.6.13" type="github">
  <diagram id="_BGO3kCnHvh-opXhYRSR" name="Page-1">
    <mxGraphModel dx="1082" dy="627" grid="1" gridSize="10" guides="1" tooltips="1" connect="1" arrows="1" fold="1" page="1" pageScale="1" pageWidth="827" pageHeight="1169" math="0" shadow="0">
      <root>
        <mxCell id="0" />
        <mxCell id="1" parent="0" />
        <mxCell id="OK57nTrorDAZtAI-0ME9-13" value="" style="rounded=0;whiteSpace=wrap;html=1;fillColor=#ffe6cc;strokeColor=#d79b00;" vertex="1" parent="1">
          <mxGeometry x="60" y="60" width="360" height="220" as="geometry" />
        </mxCell>
        <mxCell id="OK57nTrorDAZtAI-0ME9-8" value="" style="edgeStyle=orthogonalEdgeStyle;rounded=0;orthogonalLoop=1;jettySize=auto;html=1;" edge="1" parent="1" source="OK57nTrorDAZtAI-0ME9-4" target="OK57nTrorDAZtAI-0ME9-6">
          <mxGeometry relative="1" as="geometry">
            <mxPoint x="180" y="120" as="targetPoint" />
          </mxGeometry>
        </mxCell>
        <mxCell id="OK57nTrorDAZtAI-0ME9-12" value="" style="edgeStyle=orthogonalEdgeStyle;rounded=0;orthogonalLoop=1;jettySize=auto;html=1;" edge="1" parent="1" source="OK57nTrorDAZtAI-0ME9-4" target="OK57nTrorDAZtAI-0ME9-11">
          <mxGeometry relative="1" as="geometry" />
        </mxCell>
        <mxCell id="OK57nTrorDAZtAI-0ME9-4" value="终端app" style="rounded=0;whiteSpace=wrap;html=1;fillColor=#f8cecc;strokeColor=#b85450;" vertex="1" parent="1">
          <mxGeometry x="120" y="200" width="120" height="60" as="geometry" />
        </mxCell>
        <mxCell id="OK57nTrorDAZtAI-0ME9-6" value="hostname&lt;br&gt;+instanceid" style="shape=tape;whiteSpace=wrap;html=1;fillColor=#f8cecc;strokeColor=#b85450;" vertex="1" parent="1">
          <mxGeometry x="260" y="80" width="120" height="100" as="geometry" />
        </mxCell>
        <mxCell id="OK57nTrorDAZtAI-0ME9-9" value="无影桌面服务" style="whiteSpace=wrap;html=1;rounded=0;fillColor=#dae8fc;strokeColor=#6c8ebf;" vertex="1" parent="1">
          <mxGeometry x="410" y="350" width="120" height="60" as="geometry" />
        </mxCell>
        <mxCell id="OK57nTrorDAZtAI-0ME9-18" value="" style="edgeStyle=orthogonalEdgeStyle;rounded=0;orthogonalLoop=1;jettySize=auto;html=1;fontSize=16;entryX=0;entryY=0.5;entryDx=0;entryDy=0;" edge="1" parent="1" source="OK57nTrorDAZtAI-0ME9-11" target="OK57nTrorDAZtAI-0ME9-9">
          <mxGeometry relative="1" as="geometry">
            <mxPoint x="320" y="379.9999999999999" as="targetPoint" />
          </mxGeometry>
        </mxCell>
        <mxCell id="OK57nTrorDAZtAI-0ME9-11" value="应用后台服务" style="rounded=0;whiteSpace=wrap;html=1;fillColor=#d5e8d4;strokeColor=#82b366;" vertex="1" parent="1">
          <mxGeometry x="120" y="350" width="120" height="60" as="geometry" />
        </mxCell>
        <mxCell id="OK57nTrorDAZtAI-0ME9-14" value="云桌面" style="text;html=1;align=center;verticalAlign=middle;resizable=0;points=[];autosize=1;strokeColor=none;fontSize=16;" vertex="1" parent="1">
          <mxGeometry x="95" y="90" width="60" height="20" as="geometry" />
        </mxCell>
        <mxCell id="OK57nTrorDAZtAI-0ME9-15" value="&lt;font style=&quot;font-size: 12px&quot;&gt;获取应用列表&lt;/font&gt;" style="text;html=1;align=center;verticalAlign=middle;resizable=0;points=[];autosize=1;strokeColor=none;fontSize=16;" vertex="1" parent="1">
          <mxGeometry x="180" y="300" width="90" height="30" as="geometry" />
        </mxCell>
        <mxCell id="OK57nTrorDAZtAI-0ME9-16" value="&lt;font style=&quot;font-size: 12px&quot;&gt;读取用户信息&lt;br&gt;hostname/instanceid&lt;br&gt;&lt;/font&gt;" style="text;html=1;align=center;verticalAlign=middle;resizable=0;points=[];autosize=1;strokeColor=none;fontSize=16;" vertex="1" parent="1">
          <mxGeometry x="250" y="355" width="130" height="50" as="geometry" />
        </mxCell>
      </root>
    </mxGraphModel>
  </diagram>
</mxfile>
